{"accessors":[{"bufferView":1,"componentType":5126,"count":64086,"max":[0.8989616632461548,0.33505159616470337,1.998703956604004],"min":[-0.8989616632461548,-0.3024190068244934,-1.7684470415115356],"type":"VEC3"},{"bufferView":1,"byteOffset":769032,"componentType":5126,"count":64086,"max":[0.9999741911888123,0.9999994039535522,0.9998694658279419],"min":[-0.9999740719795227,-0.9999864101409912,-0.9999997019767761],"type":"VEC3"},{"bufferView":0,"componentType":5125,"count":384108,"max":[64085],"min":[0],"type":"SCALAR"}],"asset":{"extras":{"author":"Sebastian Valenzuela (https://sketchfab.com/Svalenzuela28)","license":"CC-BY-4.0 (http://creativecommons.org/licenses/by/4.0/)","source":"https://sketchfab.com/models/bdb66169cced467baacd085e5cbd00ca","title":"Female mannequin"},"generator":"Sketchfab-4.7.0","version":"2.0"},"bufferViews":[{"buffer":0,"byteLength":1536432,"byteOffset":0,"name":"floatBufferViews","target":34963},{"buffer":0,"byteLength":1538064,"byteOffset":1536432,"byteStride":12,"name":"floatBufferViews","target":34962}],"buffers":[{"byteLength":3074496,"uri":"data:application/octet-stream;base64,"}],"materials":[{"doubleSided":true,"name":"material_0","pbrMetallicRoughness":{"baseColorFactor":[1,1,1,1],"metallicFactor":0,"roughnessFactor":0.6}}],"meshes":[{"primitives":[{"attributes":{"NORMAL":1,"POSITION":0},"indices":2,"material":0,"mode":4}]}],"nodes":[{"children":[1],"name":"RootNode (gltf orientation matrix)","rotation":[-0.7071067811865475,0,0,0.7071067811865476]},{"children":[2],"name":"RootNode (model correction matrix)"},{"children":[3],"name":"SubTool-3-8902407.OBJ"},{"mesh":0,"name":""}],"scene":0,"scenes":[{"name":"OSG_Scene","nodes":[0]}]}